<svg width="47" height="47" viewBox="0 0 47 47" fill="none" xmlns="http://www.w3.org/2000/svg">
<path d="M33.2917 35.25C34.3305 35.25 35.3267 35.6627 36.0612 36.3972C36.7957 37.1317 37.2084 38.1279 37.2084 39.1667C37.2084 40.2055 36.7957 41.2017 36.0612 41.9362C35.3267 42.6707 34.3305 43.0834 33.2917 43.0834C32.2529 43.0834 31.2567 42.6707 30.5222 41.9362C29.7877 41.2017 29.375 40.2055 29.375 39.1667C29.375 36.9929 31.118 35.25 33.2917 35.25ZM1.95837 3.91669H8.36212L10.203 7.83335H39.1667C39.6861 7.83335 40.1842 8.03968 40.5515 8.40694C40.9187 8.7742 41.125 9.2723 41.125 9.79169C41.125 10.1246 41.0271 10.4575 40.89 10.7709L33.8792 23.4413C33.2134 24.6359 31.9209 25.4584 30.4521 25.4584H15.8625L14.1 28.6504L14.0413 28.8854C14.0413 29.0153 14.0929 29.1398 14.1847 29.2316C14.2765 29.3234 14.401 29.375 14.5309 29.375H37.2084V33.2917H13.7084C12.6696 33.2917 11.6734 32.879 10.9389 32.1445C10.2044 31.41 9.79171 30.4138 9.79171 29.375C9.79171 28.6896 9.96796 28.0434 10.2617 27.495L12.925 22.6971L5.87504 7.83335H1.95837V3.91669ZM13.7084 35.25C14.7471 35.25 15.7434 35.6627 16.4779 36.3972C17.2124 37.1317 17.625 38.1279 17.625 39.1667C17.625 40.2055 17.2124 41.2017 16.4779 41.9362C15.7434 42.6707 14.7471 43.0834 13.7084 43.0834C12.6696 43.0834 11.6734 42.6707 10.9389 41.9362C10.2044 41.2017 9.79171 40.2055 9.79171 39.1667C9.79171 36.9929 11.5346 35.25 13.7084 35.25ZM31.3334 21.5417L36.7775 11.75H12.0242L16.6459 21.5417H31.3334Z" fill="#FF6600"/>
</svg>
